# xmcd
#
# Track frame offsets: 
#        150
#        20862
#        41972
#        64720
#        88037
#        108415
#        129735
#        150565
#        168972
#        189742
#        208935
#        231825
#        253527
#        275537
#        301377
#        320410
#
# Disc length: 4542 seconds
#
# Revision: 1
# Processed by: cddbd v1.5.2PL0 Copyright (c) Steve Scherf et al.
# Submitted via: ExactAudioCopy v1.0b3
#
DISCID=e911bc10
DTITLE=Various Artist - SALSA MAX
DYEAR=1996
DGENRE=Salsa
TTITLE0=Victor Victor - La Mulatona
TTITLE1=Gloria Estefan - Si Senor!
TTITLE2=Jerry Rivera - Amonres Como El Nuestro
TTITLE3=Willie Colon - Indilio
TTITLE4=Sandra Torres - Amiga Mia
TTITLE5=Joe Arroyo - El Viajero
TTITLE6=Grupo Niche - Call Aji
TTITLE7=Albita - No Se Parece A Nada
TTITLE8=Willy Chirino - Caballero Y Dama
TTITLE9=Grupo Wao - Los Ruidos
TTITLE10=Victor Manuelle - Apiadate De Mi
TTITLE11=Luis Enrique - Quien Eres Tu
TTITLE12=Deddie Romero - Quiero Renacer Mi Amor
TTITLE13=Gilberto Santa Rosa - Buscando La Melodia
TTITLE14=Johnny Ventura - La Cirugia
TTITLE15=Ruben Blades - Piensa En Mi
EXTD=YEAR: 1996
EXTT0=
EXTT1=
EXTT2=
EXTT3=
EXTT4=
EXTT5=
EXTT6=
EXTT7=
EXTT8=
EXTT9=
EXTT10=
EXTT11=
EXTT12=
EXTT13=
EXTT14=
EXTT15=
PLAYORDER=
